# xmcd
#
# Track frame offsets:
#	150
#	20036
#	40662
#	60842
#	75300
#	95280
#	112165
#	127780
#	140315
#	155266
#	172465
#	189133
#	201160
#	220511
#	235609
#
# Disc length: 3354 seconds
#
# Revision: 0
# Processed by: cddbd v1.5.2PL0 Copyright (c) Steve Scherf et al.
# Submitted via: EZCDAudioConverter 4.0.5.1
#
DISCID=b60d180f
DTITLE=Artistes varies - Bar Nashville, Classic and New Country Flavors - CD 2
DTITLE=Various Artist - New
DYEAR=2008
DGENRE=Country
TTITLE0=Kris Kristofferson - Me and Bobby McGee
TTITLE1=Mary Chapin Carpenter - Stones in the Road
TTITLE2=Dwight Yoakam - A Thousand Miles From Nowhere
TTITLE3=Doug Sahm - Is Anyone Going To San Antone
TTITLE4=Gram Parsons - Return of the Grievous Angel
TTITLE5=Tracy Nelson and Mother Earth - It Takes A Lot To Laugh, It Takes A Tr
TTITLE5=ain To Cry
TTITLE6=Uncle Tupelo - Give Back The Key To My Heart
TTITLE7=Steve Earle - I Still Carry You Around
TTITLE8=Rosanne Cash - On The Inside
TTITLE9=Travis Tritt - Back Up Against The Wall
TTITLE10=Gene Clark - From A Silver Phial
TTITLE11=Carlene Carter - You Are The One
TTITLE12=Son Volt - Tear Stained Eye
TTITLE13=Ricky Van Shelton - Wild Man
TTITLE14=Linda Ronstadt - Desperado
EXTD=
EXTT0=
EXTT1=
EXTT2=
EXTT3=
EXTT4=
EXTT5=
EXTT6=
EXTT7=
EXTT8=
EXTT9=
EXTT10=
EXTT11=
EXTT12=
EXTT13=
EXTT14=
PLAYORDER=
